<?xml version="1.0" encoding="UTF-8" standalone="no"?>
<!-- Generator: Adobe Illustrator 13.0.1, SVG Export Plug-In . SVG Version: 6.00 Build 14948)  -->

<svg
   xmlns:dc="http://purl.org/dc/elements/1.1/"
   xmlns:cc="http://creativecommons.org/ns#"
   xmlns:rdf="http://www.w3.org/1999/02/22-rdf-syntax-ns#"
   xmlns:svg="http://www.w3.org/2000/svg"
   xmlns="http://www.w3.org/2000/svg"
   xmlns:sodipodi="http://sodipodi.sourceforge.net/DTD/sodipodi-0.dtd"
   xmlns:inkscape="http://www.inkscape.org/namespaces/inkscape"
   version="1.1"
   x="0px"
   y="0px"
   width="120px"
   height="40px"
   viewBox="0 0 120 40"
   enable-background="new 0 0 120 40"
   xml:space="preserve"
   id="svg2"
   inkscape:version="0.48.1 r9760"
   sodipodi:docname="spartan_logo.svg"><metadata
   id="metadata84"><rdf:RDF><cc:Work
       rdf:about=""><dc:format>image/svg+xml</dc:format><dc:type
         rdf:resource="http://purl.org/dc/dcmitype/StillImage" /></cc:Work></rdf:RDF></metadata><defs
   id="defs82">
	
	
	
	
	
	
	
	
	
	
	
	
		
	
	
	
		
	
</defs><sodipodi:namedview
   pagecolor="#ffffff"
   bordercolor="#666666"
   borderopacity="1"
   objecttolerance="10"
   gridtolerance="10"
   guidetolerance="10"
   inkscape:pageopacity="0"
   inkscape:pageshadow="2"
   inkscape:window-width="1461"
   inkscape:window-height="994"
   id="namedview80"
   showgrid="false"
   inkscape:zoom="6.1636141"
   inkscape:cx="45.375936"
   inkscape:cy="25.810926"
   inkscape:window-x="5"
   inkscape:window-y="0"
   inkscape:window-maximized="0"
   inkscape:current-layer="svg2" />
<g
   id="Layer_3">
</g>
<rect
   style="fill:none"
   id="rect6"
   height="79.25"
   width="167"
   y="-19.75"
   x="-30.75" /><g
   style="fill:#000000"
   id="g54">
		<path
   inkscape:connector-curvature="0"
   style="fill:#c79900;fill-opacity:1;stroke:#000000;stroke-width:0.59850000999999997"
   id="path56"
   d="m 36.688,23.585 c 0,-0.444 0.133,-0.797 0.401,-1.059 0.268,-0.26 0.592,-0.392 0.973,-0.392 0.389,0 0.721,0.128 0.994,0.383 0.274,0.259 0.411,0.612 0.411,1.067 v 1.441 h 0.063 c 0.421,-0.736 0.973,-1.401 1.66,-1.996 0.687,-0.594 1.407,-0.907 2.159,-0.938 0.422,0 0.794,0.141 1.12,0.416 0.326,0.277 0.491,0.62 0.491,1.032 0,0.481 -0.167,0.835 -0.502,1.062 -0.334,0.228 -0.819,0.423 -1.456,0.587 -0.637,0.166 -1.049,0.299 -1.238,0.403 -1.531,0.83 -2.296,2.251 -2.296,4.262 v 8.276 c 0,0.459 -0.128,0.815 -0.387,1.067 -0.258,0.253 -0.577,0.379 -0.957,0.379 -0.4,0 -0.74,-0.132 -1.018,-0.397 -0.279,-0.267 -0.417,-0.64 -0.417,-1.115 V 23.585 z" />
		<path
   inkscape:connector-curvature="0"
   style="fill:#005a8b;stroke:#000000;stroke-width:0.59850000999999997;fill-opacity:1"
   id="path58"
   d="m 45.666,30.681 c 0.062,-1.46 0.398,-2.843 1.004,-4.154 0.607,-1.309 1.473,-2.368 2.596,-3.184 1.123,-0.813 2.444,-1.229 3.962,-1.251 1.474,0 2.782,0.397 3.927,1.192 1.143,0.795 2.027,1.847 2.649,3.157 0.623,1.312 0.933,2.68 0.933,4.109 0,0.916 -0.523,1.375 -1.568,1.375 H 48.51 c 0.021,1.137 0.263,2.098 0.729,2.879 0.465,0.782 1.087,1.366 1.869,1.755 0.782,0.387 1.646,0.579 2.598,0.579 1.667,0 3.199,-0.589 4.593,-1.769 0.48,-0.347 0.833,-0.519 1.058,-0.519 0.314,0 0.558,0.116 0.733,0.35 0.176,0.233 0.262,0.516 0.262,0.846 0,0.357 -0.138,0.7 -0.414,1.029 -0.628,0.667 -1.52,1.25 -2.672,1.75 -1.153,0.5 -2.394,0.75 -3.723,0.75 -1.392,0 -2.602,-0.261 -3.628,-0.787 -1.028,-0.523 -1.855,-1.222 -2.483,-2.088 -0.628,-0.867 -1.086,-1.805 -1.374,-2.812 -0.288,-1.004 -0.439,-2.021 -0.455,-3.051 0.027,-0.052 0.043,-0.091 0.051,-0.113 0.008,-0.024 0.012,-0.036 0.012,-0.043 z m 2.844,-0.894 h 9.404 c -0.03,-1.569 -0.449,-2.826 -1.253,-3.781 -0.805,-0.953 -1.907,-1.446 -3.308,-1.478 -1.426,0 -2.573,0.463 -3.444,1.383 -0.869,0.922 -1.336,2.215 -1.399,3.876 z" />
		<path
   inkscape:connector-curvature="0"
   style="fill:#c79900;fill-opacity:1;stroke:#000000;stroke-width:0.59850000999999997"
   id="path60"
   d="M 74.594,24.396 V 15.98 c 0,-0.44 0.137,-0.784 0.409,-1.035 0.274,-0.252 0.599,-0.377 0.969,-0.377 0.413,0 0.755,0.125 1.03,0.376 0.274,0.251 0.412,0.616 0.412,1.096 v 22.087 c 0,0.455 -0.142,0.809 -0.424,1.065 -0.281,0.256 -0.622,0.383 -1.019,0.383 -0.354,0 -0.674,-0.127 -0.956,-0.382 -0.281,-0.255 -0.422,-0.589 -0.422,-0.999 v -0.922 h -0.065 c -0.303,0.615 -0.798,1.142 -1.488,1.586 -0.688,0.442 -1.62,0.681 -2.793,0.717 -1.505,0 -2.828,-0.367 -3.963,-1.104 -1.137,-0.734 -2.017,-1.76 -2.645,-3.076 -0.624,-1.314 -0.948,-2.807 -0.975,-4.479 0,-1.195 0.174,-2.333 0.524,-3.413 0.351,-1.082 0.846,-2.024 1.483,-2.833 0.639,-0.805 1.404,-1.437 2.296,-1.893 0.892,-0.457 1.869,-0.687 2.933,-0.687 1.917,0 3.462,0.769 4.627,2.304 h 0.067 z m -9.108,6.388 c 0,1.734 0.374,3.213 1.124,4.436 0.747,1.223 1.865,1.863 3.348,1.919 1.183,0 2.14,-0.306 2.876,-0.921 0.73,-0.612 1.255,-1.393 1.567,-2.338 0.316,-0.945 0.484,-1.956 0.513,-3.032 0,-1.239 -0.2,-2.341 -0.603,-3.305 -0.4,-0.963 -0.959,-1.708 -1.672,-2.23 -0.716,-0.522 -1.522,-0.784 -2.425,-0.784 -1.063,0 -1.945,0.314 -2.65,0.936 -0.704,0.625 -1.221,1.411 -1.549,2.357 -0.326,0.945 -0.501,1.933 -0.529,2.962 z" />
		<path
   inkscape:connector-curvature="0"
   style="fill:#005a8b;stroke:#000000;stroke-width:0.59850000999999997;fill-opacity:1"
   id="path62"
   d="M 92.451,24.396 V 15.98 c 0,-0.44 0.138,-0.784 0.413,-1.035 0.274,-0.252 0.596,-0.377 0.967,-0.377 0.412,0 0.758,0.125 1.03,0.376 0.275,0.251 0.411,0.616 0.411,1.096 v 22.087 c 0,0.455 -0.141,0.809 -0.422,1.065 -0.282,0.256 -0.624,0.383 -1.02,0.383 -0.354,0 -0.674,-0.127 -0.955,-0.382 -0.282,-0.255 -0.425,-0.589 -0.425,-0.999 v -0.922 h -0.062 c -0.304,0.615 -0.799,1.142 -1.488,1.586 -0.688,0.442 -1.619,0.681 -2.793,0.717 -1.506,0 -2.827,-0.367 -3.964,-1.104 -1.138,-0.734 -2.018,-1.76 -2.643,-3.076 -0.624,-1.314 -0.95,-2.807 -0.976,-4.479 0,-1.195 0.176,-2.333 0.525,-3.413 0.351,-1.082 0.844,-2.024 1.481,-2.833 0.64,-0.805 1.404,-1.437 2.296,-1.893 0.892,-0.457 1.869,-0.687 2.932,-0.687 1.918,0 3.462,0.769 4.629,2.304 h 0.064 z m -9.104,6.388 c 0,1.734 0.373,3.213 1.123,4.436 0.749,1.223 1.865,1.863 3.349,1.919 1.183,0 2.142,-0.306 2.872,-0.921 0.735,-0.612 1.258,-1.393 1.571,-2.338 0.314,-0.945 0.485,-1.956 0.512,-3.032 0,-1.239 -0.2,-2.341 -0.601,-3.305 -0.4,-0.963 -0.959,-1.708 -1.673,-2.23 -0.716,-0.522 -1.523,-0.784 -2.424,-0.784 -1.064,0 -1.948,0.314 -2.652,0.936 -0.705,0.625 -1.219,1.411 -1.547,2.357 -0.328,0.945 -0.504,1.933 -0.53,2.962 z" />
		<path
   inkscape:connector-curvature="0"
   style="fill:#c79900;stroke:#000000;stroke-width:0.59850000999999997;fill-opacity:1"
   id="path64"
   d="m 107.747,24.7 h -1.245 c -0.399,0 -0.721,-0.114 -0.963,-0.341 -0.24,-0.228 -0.379,-0.509 -0.421,-0.843 0.083,-0.836 0.545,-1.254 1.384,-1.254 h 1.245 v -3.815 c 0,-0.416 0.134,-0.739 0.4,-0.969 0.267,-0.229 0.591,-0.343 0.978,-0.343 0.41,0 0.755,0.116 1.031,0.348 0.274,0.232 0.415,0.577 0.415,1.035 v 3.744 h 1.243 c 0.429,0 0.755,0.115 0.979,0.345 0.225,0.229 0.338,0.531 0.338,0.909 0,0.319 -0.112,0.596 -0.329,0.83 -0.221,0.234 -0.504,0.354 -0.854,0.354 h -1.377 v 13.488 c 0,0.429 -0.149,0.768 -0.443,1.017 -0.293,0.248 -0.65,0.371 -1.064,0.371 -0.37,0 -0.686,-0.123 -0.936,-0.371 -0.252,-0.249 -0.381,-0.608 -0.381,-1.078 V 24.7 z" />
	</g><circle
   sodipodi:ry="2.309"
   sodipodi:rx="2.309"
   sodipodi:cy="17.490999"
   sodipodi:cx="100.552"
   style="fill:#c79900;stroke:#000000;stroke-width:1.60000001999999997;fill-opacity:1"
   id="circle66"
   r="2.309"
   cy="17.490999"
   cx="100.552" /><line
   style="fill:#005a8b;stroke:#000000;stroke-width:3.36019992999999983;stroke-linecap:round;fill-opacity:1;stroke-opacity:1"
   id="line68"
   y2="38.224998"
   x2="100.556"
   y1="23.433001"
   x1="100.556" />
<g
   style="fill:#ffffff;stroke:#000000;stroke-width:8"
   id="g3087"
   transform="matrix(0.09848464,0,0,0.09848464,-1.7525183,-5.0581847)"><path
     sodipodi:nodetypes="ccccc"
     inkscape:connector-curvature="0"
     id="path3803"
     d="m 194.27481,139.77098 -14.12215,-57.2519 c 27.1972,-18.015936 33.49417,-17.235752 57.92367,0.381679 l -13.17558,56.870221 z"
     style="fill:#005a8b;fill-opacity:1;stroke:#000000;stroke-width:8.50000000000000000;stroke-linecap:butt;stroke-linejoin:round;stroke-miterlimit:4;stroke-opacity:1;stroke-dasharray:none" /><path
     sodipodi:nodetypes="ccccccc"
     transform="translate(50,60)"
     inkscape:connector-curvature="0"
     id="path3801"
     d="m 104.96183,228.24427 -18.320609,53.05344 15.267179,77.8626 c 0,0 124.32466,-33.21168 170.61069,-17.17558 9.6448,-46.94101 -4.19848,-62.21374 -4.19848,-62.21374 l -55.72519,-48.85496 z"
     style="fill:#005a8b;fill-opacity:1;stroke:#000000;stroke-width:8.50000000000000000;stroke-linecap:butt;stroke-linejoin:round;stroke-miterlimit:4;stroke-opacity:1;stroke-dasharray:none" /><g
     id="g3083"
     transform="translate(210,185)"><circle
       sodipodi:ry="25"
       sodipodi:rx="25"
       sodipodi:cy="0"
       sodipodi:cx="-105"
       cy="0"
       d="m -80,0 c 0,13.807119 -11.192881,25 -25,25 -13.80712,0 -25,-11.192881 -25,-25 0,-13.807119 11.19288,-25 25,-25 13.807119,0 25,11.192881 25,25 z"
       id="circle3085"
       cx="-105"
       r="25" /><circle
       sodipodi:ry="25"
       sodipodi:rx="25"
       sodipodi:cy="0"
       sodipodi:cx="105"
       cy="0"
       d="M 130,0 C 130,13.807119 118.80712,25 105,25 91.192881,25 80,13.807119 80,0 c 0,-13.807119 11.192881,-25 25,-25 13.80712,0 25,11.192881 25,25 z"
       id="circle3087"
       cx="105"
       r="25" /></g><path
     inkscape:connector-curvature="0"
     id="path3095"
     d="m 287,444.5 c 5,0 10,-30 -37,-29 q -70,-15.5 -50,29 z" /><path
     inkscape:connector-curvature="0"
     id="path3097"
     d="m 133,444.5 c -5,0 -10,-30 37,-29 q 10,-15.5 30,29 z" /><g
     id="g3099"
     transform="translate(210,330)"><g
       id="g3101"
       transform="translate(0,10)"><ellipse
         sodipodi:ry="50"
         sodipodi:rx="43"
         sodipodi:cy="0"
         sodipodi:cx="-44"
         cy="0"
         d="m -1,0 c 0,27.614237 -19.251756,50 -43,50 -23.748244,0 -43,-22.385763 -43,-50 0,-27.614237 19.251756,-50 43,-50 23.748244,0 43,22.385763 43,50 z"
         id="ellipse3103"
         ry="50"
         rx="43"
         cx="-44" /><ellipse
         sodipodi:ry="50"
         sodipodi:rx="43"
         sodipodi:cy="0"
         sodipodi:cx="44"
         cy="0"
         d="M 87,0 C 87,27.614237 67.748244,50 44,50 20.251756,50 1,27.614237 1,0 c 0,-27.614237 19.251756,-50 43,-50 23.748244,0 43,22.385763 43,50 z"
         id="ellipse3105"
         ry="50"
         rx="43"
         cx="44" /></g><ellipse
       sodipodi:ry="120"
       sodipodi:rx="57"
       sodipodi:cy="0"
       sodipodi:cx="0"
       cy="0"
       cx="0"
       style="fill:#c79900;fill-opacity:1"
       d="M 57,0 C 57,66.27417 31.480231,120 0,120 -31.480231,120 -57,66.27417 -57,0 c 0,-66.27417 25.519769,-120 57,-120 31.480231,0 57,53.72583 57,120 z"
       id="ellipse3107"
       ry="120"
       rx="57" /></g><ellipse
     d="m 325,220 c 0,41.97364 -51.48725,76 -115,76 -63.51275,0 -115,-34.02636 -115,-76 0,-41.97364 51.48725,-76 115,-76 63.51275,0 115,34.02636 115,76 z"
     sodipodi:ry="76"
     sodipodi:rx="115"
     sodipodi:cy="220"
     sodipodi:cx="210"
     id="ellipse3109"
     ry="76"
     rx="115"
     cy="220"
     cx="210" /><path
     inkscape:connector-curvature="0"
     id="path3111"
     d="m 165,253 q 45,30 90,0" /><g
     style="fill:#ff4500;stroke:#ffffff"
     id="g3113"
     transform="translate(210,206)"><circle
       sodipodi:ry="16.200001"
       sodipodi:rx="16.200001"
       sodipodi:cy="0"
       sodipodi:cx="-40"
       cy="0"
       d="m -23.799999,0 c 0,8.9470134 -7.252988,16.200001 -16.200001,16.200001 -8.947013,0 -16.200001,-7.2529876 -16.200001,-16.200001 0,-8.9470134 7.252988,-16.200001 16.200001,-16.200001 8.947013,0 16.200001,7.2529876 16.200001,16.200001 z"
       id="circle3115"
       cx="-40"
       r="16.200001" /><circle
       sodipodi:ry="16.200001"
       sodipodi:rx="16.200001"
       sodipodi:cy="0"
       sodipodi:cx="40"
       cy="0"
       d="M 56.200001,0 C 56.200001,8.9470134 48.947013,16.200001 40,16.200001 31.052987,16.200001 23.799999,8.9470134 23.799999,0 c 0,-8.9470134 7.252988,-16.200001 16.200001,-16.200001 8.947013,0 16.200001,7.2529876 16.200001,16.200001 z"
       id="circle3117"
       cx="40"
       r="16.200001" /></g><path
     sodipodi:nodetypes="sss"
     transform="translate(50,60)"
     inkscape:connector-curvature="0"
     id="path3781"
     d="M 42.366412,232.06107 C 29.060984,273.75442 57.887983,356.23417 98.091603,364.12214 116.60971,367.7554 55.67184,190.36773 42.366412,232.06107 z"
     style="fill:#c79900;fill-opacity:1;stroke:#000000;stroke-width:8.50000000000000000;stroke-linecap:butt;stroke-linejoin:miter;stroke-miterlimit:4;stroke-opacity:1;stroke-dasharray:none" /><path
     sodipodi:nodetypes="cccccccccccccc"
     transform="translate(50,60)"
     inkscape:connector-curvature="0"
     id="path3011"
     d="m 262.86202,206.52226 -84.09614,48.24549 -0.87186,-65.85562 43.18995,-14.10297 c 4.55756,-17.64852 5.4958,-37.29704 -2.0916,-56.56489 l -42.84733,8.0687 -15.8397,43.51909 -15.45801,-43.32825 -44.75573,-8.35114 c -5.57096,19.14029 -7.744158,39.7408 -1.70993,57.80153 l 42.96638,15.67598 0.57018,64.05801 -89.00042,-53.86582 C -15.214644,36.528855 346.12878,34.851393 262.86202,206.52226 z"
     style="fill:#c79900;fill-opacity:1;stroke:#000000;stroke-width:7.90000009999999975;stroke-linecap:butt;stroke-linejoin:round;stroke-miterlimit:4;stroke-opacity:1;stroke-dasharray:none" /><path
     sodipodi:nodetypes="ccccc"
     inkscape:connector-curvature="0"
     id="path3799"
     d="M 326.64122,256.18321 324.35114,234.80916 340,213.8168 l 1.52672,26.33587 z"
     style="fill:#837171;fill-opacity:1;stroke:#000000;stroke-width:3.5999999;stroke-linecap:butt;stroke-linejoin:miter;stroke-miterlimit:4;stroke-opacity:1;stroke-dasharray:none" /><rect
     transform="matrix(0.94748849,0.31978988,-0.33499401,0.94222026,0,0)"
     y="133.50667"
     x="390.53616"
     height="207.57996"
     width="6.1205573"
     id="rect3787"
     style="fill:#bf7f19;fill-opacity:1;stroke:#000000;stroke-width:2.77836633;stroke-linejoin:round;stroke-miterlimit:1.10000002;stroke-opacity:1;stroke-dasharray:none" /></g></svg>